<?xml version="1.0" encoding="utf-8"?>
<!-- Generator: Adobe Illustrator 16.0.4, SVG Export Plug-In . SVG Version: 6.00 Build 0)  -->
<!DOCTYPE svg PUBLIC "-//W3C//DTD SVG 1.1//EN" "http://www.w3.org/Graphics/SVG/1.1/DTD/svg11.dtd">
<svg 
	version="1.1" id="Layer_1" xmlns="http://www.w3.org/2000/svg" xmlns:xlink="http://www.w3.org/1999/xlink" 
	x="0px"
	y="0px"
	width="18px"
	height="18px"
	viewBox="0 0 23.17 23.17"
	style=""
>
	<circle
	  style="fill: #F04923; stroke: #F68C21; stroke-width: 0.25; stroke-miterlimit: 10;"
	  cx="11.58"
	  cy="11.58"
	  r="8"
	/>
	<polygon
	  style="fill: #F68C21; stroke: #F68C21; stroke-width: 0.25; stroke-miterlimit: 10;"
	  points="17.25,1.77 17.25,5.77 13.78,3.77 "
	/>
	<polygon
	  style="fill: #F68C21; stroke: #F68C21; stroke-width: 0.25; stroke-miterlimit: 10;"
	  points="21.4,5.92 19.4,9.38 17.4,5.92 "
	/>
	<polygon
	  style="fill: #F68C21; stroke: #F68C21; stroke-width: 0.25; stroke-miterlimit: 10;"
	  points="22.92,11.58 19.45,13.58 19.45,9.58 "
	/>
	<polygon
	  style="fill: #F68C21; stroke: #F68C21; stroke-width: 0.25; stroke-miterlimit: 10;"
	  points="21.4,17.25 17.4,17.25 19.4,13.78 "
	/>
	<polygon
	  style="fill: #F68C21; stroke: #F68C21; stroke-width: 0.25; stroke-miterlimit: 10;"
	  points="17.25,21.4 13.78,19.4 17.25,17.4 "
	/>
	<polygon
	  style="fill: #F68C21; stroke: #F68C21; stroke-width: 0.25; stroke-miterlimit: 10;"
	  points="11.58,22.92 9.58,19.45 13.58,19.45 "
	/>
	<polygon
	  style="fill: #F68C21; stroke: #F68C21; stroke-width: 0.25; stroke-miterlimit: 10;"
	  points="5.92,21.4 5.92,17.4 9.38,19.4 "
	/>
	<polygon
	  style="fill: #F68C21; stroke: #F68C21; stroke-width: 0.25; stroke-miterlimit: 10;"
	  points="1.77,17.25 3.77,13.78 5.77,17.25 "
	/>
	<polygon
	  style="fill: #F68C21; stroke: #F68C21; stroke-width: 0.25; stroke-miterlimit: 10;"
	  points="0.25,11.58 3.71,9.58 3.71,13.58 "
	/>
	<polygon
	  style="fill: #F68C21; stroke: #F68C21; stroke-width: 0.25; stroke-miterlimit: 10;"
	  points="1.77,5.92 5.77,5.92 3.77,9.38 "
	/>
	<polygon
	  style="fill: #F68C21; stroke: #F68C21; stroke-width: 0.25; stroke-miterlimit: 10;"
	  points="5.92,1.77 9.38,3.77 5.92,5.77 "
	/>
	<polygon
	  style="fill: #F68C21; stroke: #F68C21; stroke-width: 0.25; stroke-miterlimit: 10;"
	  points="11.58,0.25 13.58,3.71 9.58,3.71 "
	/>
</svg>